<svg version="1.2" xmlns="http://www.w3.org/2000/svg" viewBox="0 0 187 38" width="187" height="38">
	<title>logo-svg</title>
	<defs>
		<clipPath clipPathUnits="userSpaceOnUse" id="cp1">
			<path d="m0 0h187v38h-187z"/>
		</clipPath>
		<clipPath clipPathUnits="userSpaceOnUse" id="cp2">
			<path d="m0 0.64h32v36.72h-32z"/>
		</clipPath>
	</defs>
	<style>
		.s0 { fill: #10b981 } 
		.s1 { fill: #ffffff } 
		.s2 { fill: #162533 } 
	</style>
	<g id="Clip-Path" clip-path="url(#cp1)">
		<g id="Layer">
			<g id="Clip-Path" clip-path="url(#cp2)">
				<g id="Layer">
					<path id="Layer" class="s0" d="m5 5.2c6.1-6.1 15.9-6.1 22 0 6 6 6 15.9 0 21.9l-8.6 8.5c-1.3 1.4-3.5 1.4-4.8 0l-8.6-8.5c-6-6-6-15.9 0-21.9z"/>
					<path id="Layer" fill-rule="evenodd" class="s1" d="m20.8 11.5c0.4 0.3 0.6 0.7 0.6 1.2v9.5c0 0.4-0.2 0.9-0.6 1.2-0.3 0.3-0.7 0.5-1.2 0.5v0.3q0 0.2-0.2 0.4-0.2 0.2-0.4 0.2-0.3 0-0.4-0.2-0.2-0.2-0.2-0.4v-0.3h-4.8v0.3q0 0.2-0.2 0.4-0.1 0.2-0.4 0.2-0.2 0-0.4-0.2-0.2-0.2-0.2-0.4v-0.3c-0.5 0-0.9-0.2-1.2-0.5-0.4-0.3-0.6-0.8-0.6-1.2v-9.5c0-0.5 0.2-0.9 0.6-1.2 0.3-0.3 0.7-0.5 1.2-0.5h2.1l0.3 0.6h2.4l0.3-0.6h2.1c0.5 0 0.9 0.2 1.2 0.5zm-7.2 2.6q0-0.2-0.2-0.4-0.1-0.1-0.4-0.1-0.2 0-0.4 0.1-0.2 0.2-0.2 0.4v7.2q0 0.3 0.2 0.4 0.2 0.2 0.4 0.2 0.3 0 0.4-0.2 0.2-0.1 0.2-0.4zm3 0q0-0.2-0.2-0.4-0.2-0.2-0.4-0.2-0.2 0-0.4 0.2-0.2 0.2-0.2 0.4v7.2q0 0.2 0.2 0.4 0.2 0.2 0.4 0.2 0.2 0 0.4-0.2 0.2-0.2 0.2-0.4zm3 0q0-0.2-0.2-0.4-0.2-0.2-0.4-0.2-0.3 0-0.4 0.2-0.2 0.2-0.2 0.4v7.2q0 0.2 0.2 0.4 0.1 0.1 0.4 0.1 0.2 0 0.4-0.1 0.2-0.2 0.2-0.4zm-5.7-3.8h-0.6v-2.3q0-0.2 0.2-0.4 0.2-0.1 0.4-0.1h4.2q0.2 0 0.4 0.1 0.2 0.2 0.2 0.4v2.3h-0.6v-1.4h-4.2z"/>
				</g>
			</g>
			<path id="Layer" class="s2" d="m58.7 7.1c0.3 0 0.5 0.3 0.5 0.5v3.9c0 0.3-0.2 0.5-0.5 0.5h-5.6c-0.3 0-0.5 0.2-0.5 0.5v19.1c0 0.3-0.2 0.5-0.5 0.5h-5.1c-0.3 0-0.5-0.2-0.5-0.5v-19.1c0-0.3-0.2-0.5-0.5-0.5h-5.6c-0.3 0-0.5-0.2-0.5-0.5v-3.9c0-0.2 0.2-0.5 0.5-0.5z"/>
			<path id="Layer" fill-rule="evenodd" class="s2" d="m76.2 22.1q0-3 1.2-5.3 1.1-2.3 3.1-3.6 2-1.2 4.5-1.2 2.1 0 3.6 0.8 0.8 0.4 1.3 0.9c0.4 0.4 1.2 0.1 1.2-0.4v-0.5c0-0.3 0.2-0.5 0.5-0.5h5.1c0.2 0 0.4 0.2 0.4 0.5v18.8c0 0.3-0.2 0.5-0.4 0.5h-5.1c-0.3 0-0.5-0.2-0.5-0.5v-0.6c0-0.5-0.8-0.8-1.1-0.4q-0.6 0.5-1.4 0.9-1.6 0.9-3.7 0.9-2.4 0-4.4-1.3-2-1.3-3.1-3.6-1.2-2.3-1.2-5.4zm14.9 0.1q0-2.3-1.3-3.6-1.3-1.3-3.1-1.3-1.8 0-3.1 1.3-1.2 1.3-1.2 3.5 0 2.3 1.2 3.7 1.3 1.3 3.1 1.3 1.8 0 3.1-1.3 1.3-1.4 1.3-3.6z"/>
			<path id="Layer" class="s2" d="m110 24.8c0.1 0.5 0.8 0.5 0.9 0l3.8-12.2c0-0.2 0.2-0.3 0.4-0.3h5.4c0.4 0 0.6 0.3 0.5 0.6l-6.7 18.9c-0.1 0.2-0.3 0.3-0.5 0.3h-6.8c-0.2 0-0.4-0.1-0.4-0.3l-6.7-18.9c-0.1-0.3 0.1-0.6 0.5-0.6h5.4c0.2 0 0.4 0.1 0.5 0.3z"/>
			<path id="Layer" fill-rule="evenodd" class="s2" d="m142.5 21.9q0 0.6-0.1 1.3c0 0.2-0.2 0.4-0.5 0.4h-12.8c-0.2 0-0.5 0.3-0.4 0.6q0.2 1.4 1.1 2.3 1 0.9 2.6 0.9 2.1 0 3-1.6c0.1-0.2 0.3-0.3 0.5-0.3h5.5c0.3 0 0.5 0.3 0.4 0.6q-0.5 1.6-1.6 2.9-1.3 1.6-3.2 2.5-2 0.9-4.4 0.9-2.9 0-5.2-1.3-2.3-1.2-3.5-3.5-1.3-2.3-1.3-5.4 0-3.1 1.2-5.4 1.3-2.3 3.6-3.6 2.2-1.2 5.2-1.2 2.9 0 5.1 1.2 2.2 1.2 3.5 3.4 1.3 2.3 1.3 5.3zm-6.7-1.6c0.2 0 0.5-0.3 0.4-0.5q-0.1-1.3-1-2-1.1-1-2.7-1-1.5 0-2.6 0.9-0.8 0.8-1.1 2c-0.1 0.3 0.1 0.6 0.4 0.6z"/>
			<path id="Layer" class="s2" d="m151.3 5.8c0.2 0 0.4 0.2 0.4 0.5v25.3c0 0.3-0.2 0.5-0.4 0.5h-5.1c-0.3 0-0.5-0.2-0.5-0.5v-25.3c0-0.3 0.2-0.5 0.5-0.5z"/>
			<path id="Layer" fill-rule="evenodd" class="s2" d="m165.4 22.1q0-3 1.2-5.3 1.1-2.3 3.1-3.6 2-1.2 4.5-1.2 2.1 0 3.6 0.8 0.8 0.4 1.3 0.9c0.4 0.4 1.2 0.1 1.2-0.4v-0.5c0-0.3 0.2-0.5 0.5-0.5h5c0.3 0 0.5 0.2 0.5 0.5v18.8c0 0.3-0.2 0.5-0.5 0.5h-5c-0.3 0-0.5-0.2-0.5-0.5v-0.6c0-0.5-0.8-0.8-1.1-0.4q-0.6 0.5-1.4 0.9-1.6 0.9-3.7 0.9-2.4 0-4.4-1.3-2-1.3-3.1-3.6-1.2-2.3-1.2-5.4zm14.9 0.1q0-2.3-1.3-3.6-1.3-1.3-3.1-1.3-1.8 0-3.1 1.3-1.2 1.3-1.2 3.5 0 2.3 1.2 3.7 1.3 1.3 3.1 1.3 1.8 0 3.1-1.3 1.3-1.4 1.3-3.6z"/>
			<path id="Layer" class="s2" d="m68.3 22.9v8.7c0 0.3-0.2 0.5-0.5 0.5h-5.1c-0.2 0-0.5-0.2-0.5-0.5v-18.8c0-0.3 0.3-0.5 0.5-0.5h5.1c0.3 0 0.5 0.2 0.5 0.5v2.8z"/>
			<path id="Layer" fill-rule="evenodd" class="s2" d="m161.7 32.1c0.3 0 0.5-0.2 0.5-0.5v-18.8c0-0.3-0.2-0.5-0.5-0.5h-5.1c-0.2 0-0.5 0.2-0.5 0.5v18.8c0 0.3 0.3 0.5 0.5 0.5z"/>
			<path id="Layer" class="s0" d="m159.1 10.8c-1.8 0-3.2-1.5-3.2-3.3 0-1.7 1.4-3.2 3.2-3.2 1.8 0 3.3 1.5 3.3 3.2 0 1.8-1.5 3.3-3.3 3.3z"/>
			<path id="Layer" class="s0" d="m72.7 18.3c-1.7 0-3.1-1.4-3.1-3.1 0-1.6 1.4-3 3.1-3 1.6 0 3 1.4 3 3 0 1.7-1.4 3.1-3 3.1z"/>
		</g>
	</g>
</svg>